<?xml version="1.0" standalone="no"?>
<!DOCTYPE svg PUBLIC "-//W3C//DTD SVG 20010904//EN"
 "http://www.w3.org/TR/2001/REC-SVG-20010904/DTD/svg10.dtd">
<svg version="1.0" xmlns="http://www.w3.org/2000/svg"
 width="512.000000pt" height="512.000000pt" viewBox="0 0 512.000000 512.000000"
 preserveAspectRatio="xMidYMid meet">

<g transform="translate(0.000000,512.000000) scale(0.100000,-0.100000)"
fill="#000000" stroke="none">
<path d="M2403 4264 c-79 -55 -123 -91 -123 -103 0 -9 45 -116 100 -236 55
-120 100 -222 100 -226 0 -4 -13 -15 -29 -25 -34 -20 -57 -56 -66 -107 -7 -34
-13 -41 -60 -62 -178 -78 -335 -235 -433 -430 -108 -217 -152 -464 -152 -851
l0 -164 -105 0 -105 0 0 28 c0 51 -11 72 -36 72 -13 0 -27 -7 -31 -15 -7 -13
-63 -15 -372 -17 -341 -3 -365 -4 -375 -21 -9 -16 -7 -22 12 -34 l22 -15 0
-493 0 -493 -23 -15 c-18 -12 -20 -18 -11 -34 11 -17 34 -18 397 -21 340 -2
387 0 401 14 9 8 16 24 16 35 0 18 8 19 136 19 l135 0 486 -180 c430 -159 493
-180 546 -180 l60 0 701 381 c386 210 713 394 728 410 34 36 70 147 61 192
-14 72 -72 137 -140 156 -53 15 -42 17 -241 -44 -99 -30 -185 -55 -190 -55 -7
0 -12 148 -15 428 -3 349 -7 443 -21 515 -77 399 -256 661 -540 793 -75 34
-76 35 -76 73 0 48 -34 101 -77 121 -18 8 -33 19 -33 24 0 5 46 109 101 232
56 123 99 229 96 237 -6 15 -238 157 -258 157 -6 0 -59 -21 -117 -47 l-105
-47 -112 57 c-62 31 -116 57 -121 57 -5 -1 -64 -39 -131 -86z m242 -49 c56
-30 108 -55 116 -55 8 0 62 21 120 46 l107 47 86 -52 c47 -29 86 -55 86 -59 0
-4 -44 -105 -97 -224 l-98 -218 -201 0 -201 0 -101 222 -101 222 37 26 c20 14
60 43 87 62 28 20 52 37 54 37 1 1 49 -24 106 -54z m-196 -777 c35 -22 43 -23
326 -23 267 0 293 2 319 19 25 16 34 17 70 6 109 -31 264 -153 352 -276 99
-139 177 -358 203 -569 6 -51 11 -259 11 -481 l0 -391 -169 -51 c-93 -29 -171
-52 -175 -52 -3 0 -6 14 -6 32 0 74 -71 163 -149 187 -25 7 -134 11 -303 11
l-264 0 -307 105 -307 105 -121 0 -122 0 6 248 c6 287 26 423 85 598 57 165
109 251 227 369 78 78 118 110 180 143 44 23 86 42 94 42 7 0 30 -10 50 -22z
m-123 -1550 l289 -102 300 -5 c296 -6 300 -6 334 -30 57 -41 80 -130 41 -164
-11 -9 -20 -26 -20 -37 0 -12 -13 -26 -32 -37 -29 -16 -73 -19 -388 -23 -331
-5 -355 -6 -358 -23 -9 -46 0 -47 361 -47 238 0 352 4 381 12 25 8 59 31 88
60 l48 47 414 126 c400 121 416 125 449 112 74 -31 97 -107 58 -193 -21 -46
64 4 -892 -517 -455 -248 -532 -287 -568 -287 -31 0 -180 51 -528 180 l-486
180 -143 0 -144 0 0 425 0 425 254 0 253 0 289 -102z"/>
<path d="M2677 3223 c-4 -3 -7 -61 -7 -127 l-1 -121 -40 -28 c-67 -46 -99
-118 -84 -193 9 -50 81 -118 184 -173 87 -47 151 -107 151 -142 0 -35 -41 -97
-76 -114 -41 -19 -77 -19 -119 1 -40 19 -62 50 -73 100 -9 45 -33 64 -56 45
-38 -32 6 -149 74 -196 l40 -28 0 -104 c0 -87 3 -105 16 -110 38 -14 49 10 52
111 3 91 4 96 25 96 37 1 101 35 134 73 38 43 57 106 48 156 -9 50 -89 125
-193 180 -127 68 -163 121 -128 189 31 60 93 89 156 72 48 -13 80 -49 95 -107
10 -40 16 -48 38 -51 33 -4 44 30 27 85 -25 77 -86 129 -172 148 l-28 5 0 104
c0 58 -3 111 -6 120 -6 16 -45 22 -57 9z"/>
<path d="M2284 2616 c-3 -8 -4 -23 -2 -33 3 -15 13 -18 62 -18 66 0 92 19 67
49 -18 21 -119 23 -127 2z"/>
<path d="M3063 2614 c-12 -32 11 -49 67 -49 60 0 85 20 61 49 -19 23 -119 22
-128 0z"/>
</g>
</svg>
