<?xml version="1.0" standalone="no"?>
<!DOCTYPE svg PUBLIC "-//W3C//DTD SVG 20010904//EN"
 "http://www.w3.org/TR/2001/REC-SVG-20010904/DTD/svg10.dtd">
<svg version="1.0" xmlns="http://www.w3.org/2000/svg"
 width="512.000000pt" height="512.000000pt" viewBox="0 0 512.000000 512.000000"
 preserveAspectRatio="xMidYMid meet">

<g transform="translate(0.000000,512.000000) scale(0.100000,-0.100000)"
fill="#000000" stroke="none">
<path d="M1365 4894 c-685 -123 -1100 -809 -890 -1471 50 -159 137 -303 260
-431 181 -190 383 -297 643 -341 l107 -18 3 -191 2 -191 27 -20 c25 -21 36
-21 594 -21 l569 0 0 -228 c0 -226 0 -229 23 -250 30 -29 62 -28 92 3 l25 24
0 226 0 225 570 0 571 0 24 25 c25 24 25 25 25 225 l0 200 248 0 c136 0 264 4
285 9 58 14 105 51 132 105 l25 50 0 705 0 705 -260 261 -260 260 -442 0
c-396 0 -446 -2 -474 -17 -46 -25 -93 -78 -105 -118 -6 -23 -9 -340 -7 -931
l3 -896 28 -40 c15 -22 46 -50 70 -64 41 -24 46 -24 330 -27 l287 -3 0 -155 0
-154 -1120 0 -1120 0 0 143 0 143 89 12 c474 64 866 440 956 916 18 93 21 293
6 387 -28 169 -112 369 -210 499 -65 86 -199 214 -281 268 -244 161 -547 226
-825 176z m435 -153 c101 -26 249 -94 334 -155 235 -168 392 -443 414 -724 24
-307 -75 -580 -287 -793 -125 -124 -273 -211 -446 -261 -71 -20 -101 -23 -260
-22 -166 0 -187 2 -266 27 -180 55 -314 135 -436 259 -96 96 -135 152 -194
273 -146 301 -128 652 47 947 66 112 220 266 332 332 99 59 234 111 339 131
109 20 311 13 423 -14z m2280 -296 c6 -188 11 -207 74 -263 46 -40 107 -52
271 -52 l135 0 0 -643 c0 -540 -2 -646 -14 -663 -14 -18 -32 -19 -621 -19
-589 0 -607 1 -621 19 -12 17 -14 154 -14 886 0 915 -1 892 45 903 11 3 182 4
380 3 l360 -1 5 -170z m273 -163 c-128 -4 -133 1 -133 136 l0 97 115 -115 115
-115 -97 -3z"/>
<path d="M998 4409 c-10 -5 -81 -139 -159 -297 -141 -287 -141 -287 -136 -345
10 -112 84 -214 195 -269 39 -19 63 -23 137 -23 78 0 97 4 147 28 106 52 188
175 188 282 0 37 -18 81 -101 247 -55 111 -105 212 -110 225 l-9 23 170 0 170
0 0 -504 0 -504 -141 -4 c-134 -3 -142 -4 -160 -27 -25 -30 -24 -66 1 -91 19
-19 33 -20 368 -20 325 0 350 1 365 18 26 29 22 77 -9 101 -24 19 -40 21 -155
21 l-129 0 0 505 0 505 165 0 c91 0 165 -3 165 -6 0 -3 -50 -107 -111 -232
-107 -220 -110 -229 -104 -278 13 -111 88 -213 194 -263 77 -36 200 -37 279
-2 69 31 155 123 175 188 38 118 43 100 -117 421 -86 173 -153 295 -165 301
-26 15 -1089 15 -1113 0z m106 -356 c35 -71 66 -138 70 -150 l7 -23 -145 0
c-80 0 -146 3 -146 8 0 12 138 292 144 292 3 0 35 -57 70 -127z m1053 -23 l71
-150 -149 0 c-82 0 -149 2 -149 5 0 10 145 295 150 295 3 0 38 -67 77 -150z
m-947 -304 c0 -24 -52 -78 -95 -97 -78 -36 -173 -15 -228 50 -50 60 -46 61
148 61 145 0 175 -2 175 -14z m1050 7 c0 -16 -46 -71 -75 -92 -41 -27 -120
-37 -170 -21 -41 13 -115 81 -115 105 0 13 27 15 180 15 99 0 180 -3 180 -7z"/>
<path d="M3749 4290 l-124 -91 -43 51 c-36 40 -50 50 -75 50 -18 0 -37 -4 -43
-8 -20 -13 -35 -53 -28 -75 11 -35 136 -175 162 -182 30 -7 52 5 225 133 127
95 137 105 137 135 0 17 -4 37 -8 43 -9 14 -47 34 -65 34 -8 0 -70 -41 -138
-90z"/>
<path d="M3749 3730 l-124 -91 -43 51 c-36 40 -50 50 -75 50 -18 0 -37 -4 -43
-8 -20 -13 -35 -53 -28 -75 9 -30 121 -159 152 -176 33 -18 43 -13 217 115
148 108 164 127 151 177 -5 23 -42 47 -70 47 -7 0 -69 -41 -137 -90z"/>
<path d="M3749 3170 l-124 -90 -43 50 c-36 40 -50 50 -75 50 -18 0 -37 -4 -43
-8 -20 -13 -35 -53 -28 -75 9 -30 121 -159 152 -176 33 -18 43 -13 217 115
148 108 164 127 151 177 -5 23 -42 47 -70 47 -8 0 -69 -41 -137 -90z"/>
<path d="M1685 1725 c-128 -28 -275 -97 -374 -175 -60 -48 -105 -54 -115 -16
-8 33 -52 83 -90 103 -41 22 -238 30 -310 14 -58 -13 -85 -33 -115 -82 -21
-33 -21 -44 -21 -632 0 -663 -2 -642 66 -693 l37 -29 167 0 167 0 37 28 c20
16 44 45 54 65 l17 37 170 23 170 23 320 -28 c254 -21 381 -27 620 -27 429 -1
624 24 799 103 98 44 1222 688 1260 722 18 15 45 52 62 81 27 49 29 61 29 153
0 85 -3 106 -23 143 -52 98 -129 153 -241 174 -100 19 -139 2 -548 -232 l-367
-210 -12 59 c-23 112 -85 193 -184 240 l-55 26 -400 5 c-347 4 -404 7 -430 22
-52 28 -231 86 -316 103 -98 18 -291 19 -374 0z m420 -165 c44 -12 123 -40
175 -63 l95 -42 406 -5 406 -5 37 -29 c74 -56 96 -166 45 -230 l-20 -26 -444
0 c-304 0 -452 -3 -468 -11 -24 -11 -47 -47 -47 -73 0 -7 9 -25 21 -40 l20
-26 487 0 487 0 480 274 c264 151 494 277 512 281 36 7 98 -9 130 -34 80 -65
85 -189 11 -258 -40 -38 -1176 -681 -1258 -712 -108 -42 -219 -60 -463 -73
-233 -13 -487 -4 -922 33 l-249 21 -161 -21 c-88 -11 -166 -21 -173 -21 -9 0
-12 96 -10 428 l3 427 56 3 c47 2 63 9 95 36 98 82 218 147 328 177 97 26 304
21 421 -11z m-1050 -630 l0 -575 -125 0 -125 0 -3 565 c-1 311 0 571 3 578 3
9 35 12 127 10 l123 -3 0 -575z"/>
</g>
</svg>
