<?xml version="1.0" standalone="no"?>
<!DOCTYPE svg PUBLIC "-//W3C//DTD SVG 20010904//EN"
 "http://www.w3.org/TR/2001/REC-SVG-20010904/DTD/svg10.dtd">
<svg version="1.0" xmlns="http://www.w3.org/2000/svg"
 width="290.000000pt" height="89.000000pt" viewBox="0 0 290.000000 89.000000"
 preserveAspectRatio="xMidYMid meet">

<g transform="translate(0.000000,89.000000) scale(0.100000,-0.100000)"
fill="#1e40af" stroke="none">
<path d="M51 713 c-7 -98 -19 -281 -27 -408 -8 -126 -17 -247 -20 -267 l-6
-38 1391 0 c1367 0 1392 0 1431 20 77 39 104 121 56 173 -13 14 -47 37 -75 52
-90 45 -109 77 -69 115 28 26 68 26 102 -1 23 -18 27 -18 32 -5 11 29 -4 45
-50 51 -62 10 -93 0 -134 -41 -31 -31 -34 -38 -29 -79 6 -54 18 -70 71 -97
106 -53 131 -97 80 -137 l-27 -21 -1318 0 -1318 0 -12 23 c-20 35 -17 763 2
782 12 12 23 12 78 -5 121 -38 192 -79 267 -154 95 -96 136 -187 179 -395 13
-60 13 -76 3 -82 -17 -11 -279 -11 -296 -1 -8 6 -19 73 -32 198 -11 104 -20
195 -20 202 0 8 -7 12 -16 10 -14 -3 -16 -29 -15 -233 1 -126 5 -233 10 -238
4 -4 133 -6 287 -5 l279 3 -3 50 c-11 182 -100 374 -230 497 -107 100 -218
151 -412 188 -163 31 -145 49 -159 -157z"/>
<path d="M1014 391 c-58 -27 -84 -63 -84 -121 0 -85 60 -130 172 -130 75 0
122 21 156 70 45 67 15 153 -65 186 -46 20 -130 17 -179 -5z m161 -24 c18 -15
28 -36 32 -64 10 -75 -12 -117 -73 -138 -46 -15 -85 -4 -114 32 -36 46 -20
155 27 182 33 19 100 13 128 -12z"/>
<path d="M1626 394 c-9 -11 -35 -50 -59 -88 -46 -75 -63 -88 -75 -59 -4 10
-25 49 -47 86 -30 51 -44 67 -59 65 -11 -2 -20 -10 -22 -18 -1 -8 -10 -58 -19
-110 -22 -124 -23 -125 -5 -125 11 0 18 19 25 74 6 41 15 76 22 78 6 2 30 -30
53 -71 23 -42 47 -76 54 -76 7 0 20 15 29 33 35 65 74 122 83 120 5 -1 13 -36
18 -78 8 -68 11 -76 33 -81 13 -4 28 -3 33 2 11 12 -22 240 -37 255 -8 8 -15
7 -27 -7z"/>
<path d="M1772 273 l3 -128 25 0 25 0 3 128 3 127 -31 0 -31 0 3 -127z"/>
<path d="M1928 278 c-3 -114 3 -145 24 -132 4 3 8 43 8 90 0 49 4 84 10 84 5
0 47 -34 92 -76 88 -81 126 -110 133 -102 3 3 8 62 12 131 5 114 4 127 -10
127 -14 0 -17 -12 -17 -79 0 -44 -3 -82 -8 -84 -4 -3 -50 33 -102 79 -56 50
-104 84 -117 84 -21 0 -21 -5 -25 -122z"/>
<path d="M2300 304 c0 -52 5 -104 11 -116 26 -48 154 -65 214 -28 42 26 44 34
52 147 6 90 5 93 -15 93 -21 0 -22 -5 -22 -89 0 -105 -3 -117 -41 -136 -34
-18 -60 -19 -92 -4 -36 16 -47 50 -47 144 l0 85 -30 0 -30 0 0 -96z"/>
</g>
</svg>
